<svg width="655" height="304" viewBox="0 0 655 304" fill="none" xmlns="http://www.w3.org/2000/svg">
<circle cx="503" cy="152" r="152" fill="#8054FF"/>
<path d="M37.504 200.28C31.5307 200.28 26.5813 199.512 22.656 197.976C18.816 196.355 15.744 194.392 13.44 192.088C11.136 189.699 9.38667 187.352 8.192 185.048C7.08267 182.744 6.35733 180.824 6.016 179.288C5.67467 177.667 5.504 176.856 5.504 176.856H27.392C27.392 176.856 27.648 177.411 28.16 178.52C28.672 179.544 29.7387 180.611 31.36 181.72C33.0667 182.744 35.5413 183.256 38.784 183.256C40.9173 183.256 42.4533 183 43.392 182.488C44.416 181.891 45.056 181.251 45.312 180.568C45.6533 179.885 45.824 179.373 45.824 179.032C45.824 176.899 43.904 175.533 40.064 174.936L30.72 173.4C26.5387 172.717 22.5707 171.608 18.816 170.072C15.0613 168.536 12.032 166.36 9.728 163.544C7.424 160.728 6.272 157.059 6.272 152.536C6.272 148.269 7.38133 144.429 9.6 141.016C11.8187 137.603 15.0613 134.915 19.328 132.952C23.68 130.904 28.928 129.88 35.072 129.88C40.6187 129.88 45.2267 130.648 48.896 132.184C52.5653 133.635 55.5093 135.427 57.728 137.56C59.9467 139.693 61.6107 141.869 62.72 144.088C63.8293 146.221 64.5547 148.056 64.896 149.592C65.2373 151.043 65.408 151.768 65.408 151.768H44.16C44.16 151.768 43.904 151.341 43.392 150.488C42.9653 149.549 42.0267 148.653 40.576 147.8C39.2107 146.947 37.1627 146.52 34.432 146.52C31.7013 146.52 29.8667 147.032 28.928 148.056C27.9893 148.995 27.52 149.933 27.52 150.872C27.52 152.237 28.2027 153.219 29.568 153.816C30.9333 154.328 32.6827 154.797 34.816 155.224L43.136 156.76C50.1333 158.04 55.8507 160.301 60.288 163.544C64.7253 166.701 66.944 171.395 66.944 177.624C66.944 184.109 64.4267 189.528 59.392 193.88C54.3573 198.147 47.0613 200.28 37.504 200.28ZM77.555 199V101.72H101.875V140.76H102.515C103.454 139.224 104.648 137.645 106.099 136.024C107.635 134.317 109.64 132.867 112.115 131.672C114.59 130.477 117.704 129.88 121.459 129.88C127.006 129.88 131.358 131.16 134.515 133.72C137.758 136.195 140.062 139.352 141.427 143.192C142.792 146.947 143.475 150.744 143.475 154.584V199H119.155V159.448C119.155 156.973 118.515 154.712 117.235 152.664C115.955 150.531 113.736 149.464 110.579 149.464C107.251 149.464 104.947 150.531 103.667 152.664C102.472 154.797 101.875 157.059 101.875 159.448V199H77.555ZM191.377 200.28C183.612 200.28 176.956 198.659 171.409 195.416C165.862 192.173 161.638 187.907 158.737 182.616C155.836 177.24 154.385 171.395 154.385 165.08C154.385 158.765 155.836 152.963 158.737 147.672C161.638 142.296 165.862 137.987 171.409 134.744C176.956 131.501 183.612 129.88 191.377 129.88C199.228 129.88 205.884 131.501 211.345 134.744C216.892 137.987 221.116 142.296 224.017 147.672C226.918 152.963 228.369 158.765 228.369 165.08C228.369 171.395 226.918 177.24 224.017 182.616C221.116 187.907 216.892 192.173 211.345 195.416C205.884 198.659 199.228 200.28 191.377 200.28ZM191.377 180.824C195.302 180.824 198.374 179.331 200.593 176.344C202.897 173.272 204.049 169.517 204.049 165.08C204.049 160.643 202.897 156.931 200.593 153.944C198.374 150.872 195.302 149.336 191.377 149.336C187.452 149.336 184.337 150.872 182.033 153.944C179.814 156.931 178.705 160.643 178.705 165.08C178.705 169.517 179.814 173.272 182.033 176.344C184.337 179.331 187.452 180.824 191.377 180.824ZM240.525 199V131.16H264.589V141.912H265.357C266.04 140.035 267.021 138.2 268.301 136.408C269.581 134.531 271.416 132.995 273.805 131.8C276.194 130.52 279.352 129.88 283.277 129.88C285.325 129.88 286.861 130.051 287.885 130.392C288.994 130.648 289.549 130.776 289.549 130.776V154.84C289.549 154.84 288.952 154.712 287.757 154.456C286.648 154.115 284.941 153.944 282.637 153.944C276.493 153.944 271.97 155.565 269.069 158.808C266.253 162.051 264.845 167.299 264.845 174.552V199H240.525ZM333.183 200.28C328.063 200.28 323.882 199.64 320.639 198.36C317.396 196.995 314.879 195.288 313.087 193.24C311.295 191.107 310.015 188.845 309.247 186.456C308.479 184.067 308.01 181.848 307.839 179.8C307.668 177.667 307.583 175.917 307.583 174.552V150.36H296.575V131.16H307.583V114.52H331.903V131.16H345.087V150.36H331.903V173.656C331.903 176.045 332.543 178.008 333.823 179.544C335.103 180.995 337.45 181.72 340.863 181.72C342.228 181.72 343.38 181.635 344.319 181.464C345.258 181.208 345.727 181.08 345.727 181.08V199C345.727 199 344.447 199.213 341.887 199.64C339.412 200.067 336.511 200.28 333.183 200.28Z" fill="white"/>
<path d="M389.272 199L368.92 131.16H392.984L402.456 170.072L413.336 131.16H434.968L445.848 170.072L455.32 131.16H479.384L459.032 199H433.432L424.216 166.36L414.872 199H389.272ZM512.319 129.88C515.647 129.88 518.506 130.349 520.895 131.288C523.284 132.141 525.204 133.123 526.655 134.232C528.191 135.341 529.3 136.365 529.983 137.304C530.751 138.157 531.135 138.584 531.135 138.584H532.159V131.16H556.479V199H532.159V191.576H531.135C531.135 191.576 530.751 192.045 529.983 192.984C529.3 193.837 528.191 194.819 526.655 195.928C525.204 197.037 523.284 198.061 520.895 199C518.506 199.853 515.647 200.28 512.319 200.28C507.37 200.28 503.06 199.299 499.391 197.336C495.807 195.288 492.778 192.6 490.303 189.272C487.914 185.859 486.122 182.061 484.927 177.88C483.732 173.699 483.135 169.432 483.135 165.08C483.135 160.728 483.732 156.461 484.927 152.28C486.122 148.099 487.914 144.344 490.303 141.016C492.778 137.603 495.807 134.915 499.391 132.952C503.06 130.904 507.37 129.88 512.319 129.88ZM520.383 149.208C517.567 149.208 515.22 150.019 513.343 151.64C511.466 153.176 510.058 155.181 509.119 157.656C508.18 160.045 507.711 162.52 507.711 165.08C507.711 167.64 508.18 170.157 509.119 172.632C510.058 175.021 511.466 177.027 513.343 178.648C515.22 180.184 517.567 180.952 520.383 180.952C523.199 180.952 525.546 180.184 527.423 178.648C529.3 177.027 530.708 175.021 531.647 172.632C532.586 170.157 533.055 167.64 533.055 165.08C533.055 162.52 532.586 160.045 531.647 157.656C530.708 155.181 529.3 153.176 527.423 151.64C525.546 150.019 523.199 149.208 520.383 149.208ZM575.577 223.96C573.017 223.96 571.012 223.875 569.561 223.704C568.196 223.533 567.513 223.448 567.513 223.448V204.248C567.513 204.248 568.025 204.291 569.049 204.376C570.073 204.461 571.481 204.504 573.273 204.504C576.686 204.504 579.502 204.163 581.721 203.48C584.025 202.797 586.03 201.347 587.737 199.128L563.545 131.16H587.609L600.665 172.12L613.209 131.16H637.273L614.361 194.52C612.057 201.005 609.326 206.424 606.169 210.776C603.012 215.213 599.001 218.499 594.137 220.632C589.358 222.851 583.172 223.96 575.577 223.96Z" fill="white"/>
</svg>
